<svg width="48" height="48" viewBox="0 0 48 48" fill="none" xmlns="http://www.w3.org/2000/svg">
<g clip-path="url(#clip0_55_17)">
<path fill-rule="evenodd" clip-rule="evenodd" d="M41.7707 1.60267C43.6998 2.62675 45.2765 4.20715 46.296 6.13867C47.34 8.09467 47.896 10.0347 47.896 15.3827V24.776C47.896 24.8973 47.8228 25.0065 47.7108 25.0529C47.5987 25.0993 47.4698 25.0737 47.384 24.988V24.9867L43.844 21.44C43.5629 21.1583 43.4051 20.7766 43.4053 20.3787V16.0373C43.4053 12.0253 42.988 10.5707 42.2053 9.104C41.4404 7.65553 40.2576 6.47047 38.8107 5.70267C37.3634 4.9256 35.9266 4.50883 32.0189 4.50014L26.1667 4.5C26.0457 4.49936 25.9369 4.42607 25.8908 4.31416C25.8448 4.20224 25.8705 4.07362 25.956 3.988L29.496 0.44C29.776 0.158667 30.1573 0 30.5547 0H32.5453C37.8827 0 39.8187 0.557333 41.7707 1.60267ZM34.4253 7.5C37.732 7.5 40.412 10.1867 40.412 13.5V17.2987C40.4114 17.4184 40.3398 17.5262 40.2297 17.5732C40.1196 17.6201 39.9921 17.5972 39.9053 17.5147L35.0787 12.8907C34.7587 12.5707 34.3853 12.3387 33.9867 12.1933C33.6484 12.0652 33.2897 11.9997 32.928 12H18.68C18.5587 11.9999 18.4495 11.9268 18.4031 11.8148C18.3567 11.7027 18.3823 11.5738 18.468 11.488L22.0133 7.93867C22.2933 7.65867 22.6733 7.5 23.0707 7.5H34.4253Z" fill="#E55638"/>
<path fill-rule="evenodd" clip-rule="evenodd" d="M43.916 26.0133L47.4573 29.5613C47.7373 29.8427 47.896 30.2253 47.896 30.6227V32.6187C47.896 37.9667 47.34 39.9067 46.296 41.8627C45.2765 43.7942 43.6998 45.3746 41.7707 46.3987C39.8187 47.4427 37.8827 48 32.5453 48H23.1733C23.0523 47.9994 22.9435 47.9261 22.8975 47.8142C22.8514 47.7022 22.8771 47.5736 22.9627 47.488V47.4893L26.5027 43.9413C26.7827 43.66 27.164 43.5013 27.5613 43.5013H31.8933C35.896 43.5013 37.3467 43.084 38.8107 42.2987C40.2576 41.5309 41.4404 40.3458 42.2053 38.8973C42.988 37.4307 43.4053 35.976 43.4053 31.964V26.2253C43.406 26.1047 43.4788 25.9961 43.5903 25.9498C43.7018 25.9036 43.8301 25.9286 43.916 26.0133ZM36.4333 18.512L39.9747 22.064C40.2547 22.3453 40.412 22.7267 40.412 23.1253V34.504C40.412 37.8173 37.732 40.504 34.4253 40.504H30.6347C30.515 40.5034 30.4071 40.4318 30.3602 40.3217C30.3132 40.2116 30.3361 40.0841 30.4187 39.9973V39.996L35.032 35.1573C35.352 34.8373 35.584 34.464 35.7293 34.064C35.8568 33.7251 35.9218 33.366 35.9213 33.004V18.724C35.9214 18.6027 35.9945 18.4935 36.1066 18.4471C36.2186 18.4007 36.3475 18.4263 36.4333 18.512Z" fill="#F4C942"/>
<path fill-rule="evenodd" clip-rule="evenodd" d="M0.510667 23.012L4.05333 26.56C4.33333 26.8413 4.492 27.224 4.492 27.6213V31.9627C4.492 35.9747 4.908 37.4293 5.692 38.896C6.4566 40.3443 7.63886 41.5293 9.08533 42.2973C10.5493 43.0827 12.0013 43.5 16.004 43.5H21.7293C21.8508 43.4996 21.9606 43.5725 22.0073 43.6846C22.0541 43.7968 22.0285 43.926 21.9427 44.012L18.4 47.56C18.12 47.8413 17.7387 48 17.3427 48H15.3507C10.0133 48 8.07867 47.4427 6.12667 46.3973C4.19706 45.3734 2.6199 43.793 1.6 41.8613C0.56644 39.9249 0.0111688 38.0041 0.000166732 32.7767L0 23.224C0.000636859 23.1033 0.0735175 22.9948 0.184971 22.9485C0.296424 22.9022 0.424752 22.9272 0.510667 23.012ZM7.99067 30.4853H7.98933L12.8187 35.1093C13.1373 35.4293 13.512 35.6613 13.9093 35.8067C14.2373 35.932 14.5947 36 14.968 36H29.216C29.337 36.0006 29.4458 36.0739 29.4918 36.1858C29.5379 36.2977 29.5122 36.4264 29.4267 36.512L25.8827 40.0613C25.6027 40.3413 25.2213 40.5 24.8253 40.5H13.4707C11.8811 40.4982 10.3574 39.8651 9.23469 38.7399C8.11197 37.6147 7.48223 36.0895 7.484 34.5V30.7013C7.48458 30.5816 7.55625 30.4738 7.66635 30.4268C7.77645 30.3799 7.90391 30.4028 7.99067 30.4853Z" fill="#7B8FEA"/>
<path fill-rule="evenodd" clip-rule="evenodd" d="M17.2613 7.5C17.381 7.50058 17.4889 7.57225 17.5358 7.68235C17.5828 7.79245 17.5599 7.91991 17.4773 8.00667L12.8627 12.8467C12.5427 13.1667 12.312 13.54 12.1667 13.94C12.0388 14.2788 11.9733 14.6379 11.9733 15V29.28C11.9722 29.4004 11.8991 29.5085 11.7878 29.5544C11.6764 29.6004 11.5484 29.5752 11.4627 29.4907L7.92133 25.9387C7.64105 25.6571 7.48379 25.2759 7.484 24.8787V13.5C7.484 10.1867 10.164 7.5 13.4707 7.5H17.2613ZM24.7227 0C24.8437 0.000642633 24.9525 0.0739307 24.9985 0.185844C25.0446 0.297756 25.0189 0.426377 24.9333 0.512L21.3933 4.06C21.112 4.34133 20.732 4.5 20.3347 4.5H16.0027C12 4.5 10.548 4.91733 9.084 5.70267C7.63703 6.47047 6.45429 7.65553 5.68933 9.104C4.91491 10.5552 4.49816 11.9947 4.48947 15.9115L4.48933 21.776C4.4887 21.8967 4.41582 22.0052 4.30436 22.0515C4.19291 22.0978 4.06458 22.0727 3.97867 21.988L0.44 18.44C0.158413 18.1586 0 17.7768 0 17.3787V15.3827C0 10.0347 0.556 8.09467 1.6 6.13867C2.61954 4.20715 4.19622 2.62675 6.12533 1.60267C8.05781 0.567787 9.97461 0.0111955 15.1903 0.000167131L24.7227 0Z" fill="#D97EE8"/>
</g>
<defs>
<clipPath id="clip0_55_17">
<rect width="48" height="48" fill="white"/>
</clipPath>
</defs>
</svg>
